<svg width="116" height="149" viewBox="0 0 116 149" fill="none" xmlns="http://www.w3.org/2000/svg">
<g clip-path="url(#clip0_23_474)">
<path fill-rule="evenodd" clip-rule="evenodd" d="M72.0949 61.62C71.9649 61.96 71.8949 62.33 71.8949 62.71C71.8949 64.41 73.2749 65.79 74.9749 65.79C76.6749 65.79 78.0549 64.41 78.0549 62.71C78.0549 62.22 77.9449 61.76 77.7349 61.35C79.0749 61.5 80.4349 61.79 81.8049 62.24C82.3849 62.43 82.9949 62.04 83.1649 61.38C83.3349 60.72 82.9949 60.03 82.4049 59.84C80.1849 59.11 77.9649 58.75 75.7449 58.76C73.5349 58.76 71.3449 59.13 69.1749 59.85C68.5949 60.04 68.2549 60.73 68.4249 61.39C68.5949 62.05 69.2049 62.43 69.7849 62.24C70.5449 61.98 71.3249 61.77 72.0949 61.62ZM97.6849 83.99V69.62C98.2949 67.01 99.4449 65.67 100.735 65.43C105.215 64.6 104.495 82.99 97.6849 83.99ZM94.8249 51.25C70.7349 34 55.9149 19.72 35.8449 32.43C28.7049 36.95 26.4849 46.22 23.2249 51.39C23.2249 64.66 23.2249 77.91 23.2249 91.2C25.1249 100.31 27.4649 101.07 33.2949 106.78L43.4149 116.68C45.2449 118.19 47.3049 119.07 49.4949 119.59C53.3349 120.49 66.2649 120.78 69.8749 119.62C72.0749 118.91 74.1449 117.61 76.0649 115.59L83.4149 108.45C90.5149 101.56 95.3349 98.59 94.8249 87.18C94.8249 75.18 94.8249 63.24 94.8249 51.25ZM45.9849 48.99C46.9549 48.95 47.7649 49.7 47.8049 50.66C47.8449 51.63 47.0949 52.44 46.1349 52.48C43.4549 52.6 41.1649 53.15 39.2449 54.08C37.3749 54.98 35.8549 56.27 34.6449 57.9C34.0649 58.68 32.9749 58.84 32.1949 58.26C31.4149 57.68 31.2549 56.59 31.8349 55.81C33.3849 53.72 35.3349 52.08 37.7249 50.92C40.0549 49.8 42.8049 49.14 45.9849 48.99ZM73.5849 52.14C72.6149 52.14 71.8349 51.35 71.8449 50.38C71.8449 49.41 72.6349 48.63 73.6049 48.64C76.5049 48.65 79.145 49.2 81.5249 50.31C83.9249 51.44 86.0249 53.13 87.8049 55.44C88.3949 56.21 88.2549 57.3 87.4849 57.9C86.7249 58.49 85.6249 58.35 85.0249 57.58C83.5949 55.72 81.9249 54.37 80.0349 53.48C78.1249 52.59 75.9749 52.15 73.5849 52.14ZM72.7449 94.71C71.2449 95.22 69.6949 95.65 68.0949 96C66.4549 96.45 64.9449 96.73 63.6049 96.76C62.0749 96.79 60.7649 96.51 59.7149 95.81C59.3949 95.6 59.1049 95.37 58.8549 95.13C58.6049 95.37 58.3149 95.6 57.9949 95.81C56.9449 96.51 55.6349 96.79 54.1049 96.76C52.7649 96.73 51.2549 96.46 49.6149 96C48.0149 95.65 46.4749 95.22 44.9649 94.71C43.4649 94.2 42.0049 93.61 40.5749 92.95C39.8849 92.63 39.6049 91.86 39.9549 91.22C40.1649 90.84 40.5449 90.6 40.9649 90.53C41.7249 90.41 42.3349 90.33 42.9049 90.25L42.9549 90.24C44.7949 89.99 46.2049 89.79 47.9349 89.1C48.4249 88.91 48.8949 88.69 49.3749 88.47C52.1249 87.2 55.1349 85.8 58.1449 88.19C58.4049 88.4 58.6449 88.61 58.8549 88.84C59.0649 88.61 59.3049 88.4 59.5649 88.19C62.5649 85.8 65.5849 87.19 68.3349 88.47C68.8149 88.69 69.2849 88.91 69.7749 89.1C71.4949 89.79 72.9149 89.99 74.7549 90.24L74.8049 90.25C75.3749 90.33 75.9849 90.41 76.7449 90.53C77.1649 90.6 77.5549 90.84 77.7549 91.22C78.1049 91.85 77.8249 92.63 77.1349 92.95C75.7049 93.62 74.2449 94.2 72.7449 94.71ZM55.2249 82.99C54.6149 82.48 54.5349 81.58 55.0449 80.98C55.5549 80.37 56.4549 80.29 57.0549 80.8C57.7649 81.4 58.4549 81.72 59.1049 81.72C59.7649 81.73 60.4849 81.43 61.2549 80.79C61.8649 80.29 62.7649 80.38 63.2649 80.99C63.7649 81.6 63.6749 82.5 63.0649 83C61.7449 84.08 60.4149 84.59 59.0649 84.58C57.7349 84.56 56.4449 84.02 55.2249 82.99ZM50.7449 101.85C50.0149 101.46 49.7349 100.55 50.1249 99.82C50.5149 99.09 51.4249 98.81 52.1549 99.2C54.4649 100.43 56.7449 101.06 58.9849 101.06C61.2249 101.06 63.4649 100.45 65.7149 99.21C66.4449 98.81 67.3549 99.08 67.7549 99.8C68.1549 100.53 67.8849 101.44 67.1649 101.84C64.4749 103.33 61.7449 104.06 58.9849 104.05C56.2249 104.05 53.4749 103.31 50.7449 101.85ZM20.4149 83.99V69.62C19.8049 67.01 18.6549 65.67 17.3649 65.43C12.8749 64.6 13.6049 82.99 20.4149 83.99ZM20.8249 86.46C20.5749 86.5 20.3149 86.51 20.0549 86.47C15.3349 85.78 12.7949 80 12.1849 74.47C12.0149 72.95 11.9849 71.44 12.0949 70.08C12.2049 68.63 12.4749 67.29 12.9149 66.21C13.8549 63.85 15.4749 62.54 17.8249 62.97C18.9449 63.18 19.9749 63.76 20.8349 64.74V62.82L18.9149 61.74C18.3849 56.51 17.0349 50.08 16.1849 44.13C16.0449 43.17 15.9649 42.24 15.9149 41.32C13.8449 41.74 12.1649 39.81 11.8649 34.4V25.68C13.1249 15.25 17.9849 11.06 25.9549 12.26C33.5449 4.32996 44.2549 -0.100044 58.9949 0.019956C75.4249 -0.300044 89.4249 3.52996 99.5949 13.94C104.945 19.26 107.215 27.51 105.845 39.25C105.905 41.48 105.775 43.81 105.415 46.27C104.655 51.56 103.675 57.18 103.375 61.31L100.825 62.9C102.885 62.75 104.325 64.03 105.195 66.21C105.625 67.3 105.895 68.63 106.015 70.08C106.115 71.44 106.085 72.94 105.925 74.47C105.315 80 102.775 85.78 98.0549 86.47C97.8449 86.5 97.6449 86.5 97.4449 86.48V87.18C97.4449 87.21 97.4449 87.24 97.4449 87.27C97.8949 98.33 93.8649 102.12 87.6349 107.99C86.8649 108.72 86.0449 109.48 85.2849 110.23L77.9749 117.33C76.8849 118.47 75.7449 119.42 74.5549 120.19C73.3449 120.97 72.0849 121.57 70.7649 121.99C68.8149 122.62 64.8049 122.88 60.6949 122.87C56.0949 122.86 51.2449 122.54 49.0449 122.02C47.7849 121.72 46.5549 121.32 45.3849 120.77C44.2049 120.22 43.0549 119.51 41.9549 118.6C41.8949 118.55 41.8449 118.5 41.7949 118.45L31.6749 108.55C30.8049 107.7 29.9349 106.89 29.1549 106.16C24.7449 102.05 22.6549 100.11 20.9049 91.69C20.8649 91.52 20.8549 91.35 20.8549 91.18H20.8249V86.46ZM36.3549 62.54C35.7849 62.76 35.1549 62.42 34.9549 61.76C34.7549 61.11 35.0649 60.4 35.6349 60.17C37.8549 59.3 40.0749 58.9 42.3049 58.92C44.5249 58.94 46.7349 59.37 48.9449 60.17C49.5249 60.38 49.8449 61.08 49.6549 61.73C49.4749 62.38 48.8549 62.75 48.2849 62.54C47.5549 62.27 46.8249 62.05 46.0849 61.88C46.1549 62.14 46.1949 62.42 46.1949 62.71C46.1949 64.41 44.8149 65.79 43.1149 65.79C41.4149 65.79 40.0349 64.41 40.0349 62.71C40.0349 62.29 40.1149 61.89 40.2649 61.53C38.9749 61.69 37.6649 62.03 36.3549 62.54Z" fill="#007FC3"/>
</g>
<path d="M5.25746 129.971H7.85689V137.514C7.85334 138.22 7.68466 138.838 7.35085 139.367C7.01705 139.893 6.5554 140.301 5.96591 140.592C5.37997 140.884 4.7017 141.029 3.93111 141.029C3.24929 141.029 2.62962 140.91 2.07209 140.672C1.51811 140.434 1.07599 140.065 0.745739 139.564C0.419034 139.064 0.257457 138.423 0.261009 137.641H2.88707C2.89773 137.922 2.95099 138.162 3.04688 138.36C3.14631 138.556 3.28303 138.703 3.45703 138.803C3.63104 138.902 3.83878 138.952 4.08026 138.952C4.33239 138.952 4.54545 138.898 4.71946 138.792C4.89347 138.682 5.02486 138.52 5.11364 138.307C5.20597 138.094 5.25391 137.83 5.25746 137.514V129.971ZM15.3619 129.971H17.9933V137.007C17.9933 137.821 17.7998 138.529 17.4127 139.133C17.0257 139.733 16.4859 140.198 15.7934 140.528C15.1009 140.855 14.2966 141.018 13.3804 141.018C12.4536 141.018 11.6439 140.855 10.9514 140.528C10.259 140.198 9.72097 139.733 9.33745 139.133C8.95392 138.529 8.76216 137.821 8.76216 137.007V129.971H11.3989V136.778C11.3989 137.155 11.4806 137.49 11.6439 137.785C11.8108 138.08 12.0434 138.311 12.3417 138.478C12.64 138.645 12.9862 138.728 13.3804 138.728C13.7746 138.728 14.1191 138.645 14.4138 138.478C14.7121 138.311 14.9447 138.08 15.1116 137.785C15.2785 137.49 15.3619 137.155 15.3619 136.778V129.971ZM28.1804 129.971V140.88H25.9432L21.6019 134.584H21.5327V140.88H18.896V129.971H21.1651L25.4585 136.256H25.549V129.971H28.1804ZM31.4481 140.88H28.6143L32.295 129.971H35.8053L39.4861 140.88H36.6523L34.0901 132.719H34.0049L31.4481 140.88ZM31.0699 136.587H36.9932V138.59H31.0699V136.587ZM39.9106 140.88V129.971H44.417C45.2338 129.971 45.9387 130.131 46.5317 130.45C47.1283 130.766 47.5882 131.208 47.9113 131.777C48.2345 132.341 48.396 132.998 48.396 133.748C48.396 134.5 48.2309 135.159 47.9007 135.724C47.574 136.285 47.107 136.72 46.4997 137.029C45.8925 137.338 45.1716 137.492 44.3371 137.492H41.5566V135.415H43.847C44.2448 135.415 44.5768 135.346 44.8431 135.207C45.113 135.069 45.3172 134.875 45.4557 134.626C45.5942 134.374 45.6634 134.081 45.6634 133.748C45.6634 133.41 45.5942 133.119 45.4557 132.874C45.3172 132.625 45.113 132.434 44.8431 132.299C44.5732 132.164 44.2412 132.096 43.847 132.096H42.5473V140.88H39.9106ZM48.9458 140.88V129.971H53.4521C54.2689 129.971 54.9738 130.118 55.5669 130.413C56.1634 130.704 56.6233 131.123 56.9465 131.67C57.2696 132.213 57.4312 132.858 57.4312 133.604C57.4312 134.36 57.2661 135.003 56.9358 135.532C56.6056 136.058 56.1368 136.459 55.5296 136.736C54.9223 137.009 54.2032 137.146 53.3722 137.146H50.5225V135.069H52.8822C53.2799 135.069 53.6119 135.017 53.8783 134.914C54.1482 134.808 54.3524 134.648 54.4909 134.435C54.6294 134.218 54.6986 133.941 54.6986 133.604C54.6986 133.266 54.6294 132.988 54.4909 132.767C54.3524 132.544 54.1482 132.377 53.8783 132.267C53.6084 132.153 53.2764 132.096 52.8822 132.096H51.5825V140.88H48.9458ZM55.0874 135.894L57.8041 140.88H54.9276L52.2643 135.894H55.0874ZM68.4239 135.425C68.4239 136.626 68.1931 137.643 67.7314 138.478C67.2698 139.312 66.6448 139.946 65.8564 140.379C65.0716 140.813 64.191 141.029 63.2144 141.029C62.2343 141.029 61.3518 140.811 60.567 140.374C59.7822 139.937 59.159 139.303 58.6974 138.472C58.2393 137.638 58.0102 136.622 58.0102 135.425C58.0102 134.225 58.2393 133.208 58.6974 132.373C59.159 131.539 59.7822 130.905 60.567 130.472C61.3518 130.038 62.2343 129.822 63.2144 129.822C64.191 129.822 65.0716 130.038 65.8564 130.472C66.6448 130.905 67.2698 131.539 67.7314 132.373C68.1931 133.208 68.4239 134.225 68.4239 135.425ZM65.7286 135.425C65.7286 134.715 65.6274 134.115 65.425 133.625C65.2261 133.135 64.9385 132.764 64.5621 132.512C64.1892 132.26 63.74 132.134 63.2144 132.134C62.6924 132.134 62.2432 132.26 61.8667 132.512C61.4903 132.764 61.2009 133.135 60.9985 133.625C60.7996 134.115 60.7002 134.715 60.7002 135.425C60.7002 136.136 60.7996 136.736 60.9985 137.226C61.2009 137.716 61.4903 138.087 61.8667 138.339C62.2432 138.591 62.6924 138.717 63.2144 138.717C63.74 138.717 64.1892 138.591 64.5621 138.339C64.9385 138.087 65.2261 137.716 65.425 137.226C65.6274 136.736 65.7286 136.136 65.7286 135.425ZM69.2133 140.88V129.971H73.7197C74.5365 129.971 75.2414 130.131 75.8344 130.45C76.431 130.766 76.8909 131.208 77.214 131.777C77.5372 132.341 77.6988 132.998 77.6988 133.748C77.6988 134.5 77.5336 135.159 77.2034 135.724C76.8767 136.285 76.4097 136.72 75.8025 137.029C75.1952 137.338 74.4743 137.492 73.6398 137.492H70.8593V135.415H73.1498C73.5475 135.415 73.8795 135.346 74.1459 135.207C74.4157 135.069 74.6199 134.875 74.7584 134.626C74.8969 134.374 74.9662 134.081 74.9662 133.748C74.9662 133.41 74.8969 133.119 74.7584 132.874C74.6199 132.625 74.4157 132.434 74.1459 132.299C73.876 132.164 73.5439 132.096 73.1498 132.096H71.8501V140.88H69.2133ZM78.2485 140.88V129.971H85.855V132.112H80.8852V134.349H85.4662V136.496H80.8852V138.739H85.855V140.88H78.2485ZM86.7563 140.88V129.971H91.2627C92.0795 129.971 92.7844 130.118 93.3774 130.413C93.974 130.704 94.4339 131.123 94.757 131.67C95.0802 132.213 95.2417 132.858 95.2417 133.604C95.2417 134.36 95.0766 135.003 94.7464 135.532C94.4161 136.058 93.9474 136.459 93.3401 136.736C92.7329 137.009 92.0138 137.146 91.1828 137.146H88.333V135.069H90.6927C91.0905 135.069 91.4225 135.017 91.6888 134.914C91.9587 134.808 92.1629 134.648 92.3014 134.435C92.4399 134.218 92.5091 133.941 92.5091 133.604C92.5091 133.266 92.4399 132.988 92.3014 132.767C92.1629 132.544 91.9587 132.377 91.6888 132.267C91.4189 132.153 91.0869 132.096 90.6927 132.096H89.393V140.88H86.7563ZM92.898 135.894L95.6146 140.88H92.7382L90.0748 135.894H92.898ZM95.5811 132.112V129.971H104.802V132.112H101.494V140.88H98.8943V132.112H95.5811ZM104.796 129.971H107.742L110.048 134.536H110.144L112.45 129.971H115.396L111.406 137.237V140.88H108.786V137.237L104.796 129.971Z" fill="#007FC3"/>
<defs>
<clipPath id="clip0_23_474">
<rect width="94.37" height="122.88" fill="white" transform="translate(10.815)"/>
</clipPath>
</defs>
</svg>
